<svg width="428" height="578" viewBox="0 0 428 578" fill="none" xmlns="http://www.w3.org/2000/svg">
<g clip-path="url(#clip0_0_1)">
<path d="M319.062 394.156C262.727 450.491 199.942 489.674 143.992 507.499C88.015 525.332 39.0274 521.75 10.0917 492.814C-18.844 463.879 -22.426 414.891 -4.59253 358.914C13.2322 302.964 52.4153 240.179 108.75 183.844C165.085 127.509 227.87 88.3263 283.82 70.5015C339.797 52.6681 388.784 56.2501 417.72 85.1858C446.656 114.122 450.238 163.109 432.404 219.086C414.58 275.036 375.397 337.821 319.062 394.156Z" stroke="#5B6AED" stroke-opacity="0.26"/>
<path d="M319.062 183.844C375.397 240.179 414.58 302.964 432.405 358.914C450.238 414.891 446.656 463.879 417.72 492.814C388.785 521.75 339.797 525.332 283.82 507.499C227.87 489.674 165.085 450.491 108.75 394.156C52.4154 337.821 13.2323 275.036 -4.59246 219.086C-22.4259 163.109 -18.8439 114.122 10.0918 85.1858C39.0275 56.2501 88.0151 52.6681 143.992 70.5015C199.942 88.3263 262.727 127.509 319.062 183.844Z" stroke="#5B6AED" stroke-opacity="0.26"/>
<path d="M214 577.5C373.334 577.5 502.5 448.334 502.5 289C502.5 129.666 373.334 0.5 214 0.5C54.6658 0.5 -74.5 129.666 -74.5 289C-74.5 448.334 54.6658 577.5 214 577.5Z" stroke="#5B6AED" stroke-opacity="0.26"/>
</g>
<defs>
<clipPath id="clip0_0_1">
<rect width="428" height="578" fill="white"/>
</clipPath>
</defs>
</svg>
