<svg width="50" height="57" viewBox="0 0 50 57" fill="none" xmlns="http://www.w3.org/2000/svg">
<path d="M35.2945 21.4369C33.1762 19.271 30.9019 17.2671 28.4905 15.4416C26.0733 17.2676 23.7924 19.2714 21.6665 21.4369C19.5316 23.5831 17.5562 25.8858 15.7563 28.3263C19.3718 33.2123 23.6601 37.5495 28.4905 41.2058C30.899 39.3823 33.173 37.3836 35.2945 35.2258L36.2988 34.2503L49.5 47.6227L48.5309 48.6033C43.2161 53.9797 36.0085 57 28.493 57C20.9776 57 13.77 53.9797 8.45522 48.6033C3.29303 43.1944 0.436627 35.9506 0.501067 28.4318C0.565507 20.9129 3.54563 13.7204 8.79976 8.40285C14.0539 3.08535 21.1617 0.0682283 28.5928 0.00114299C36.0239 -0.0659423 43.1838 2.82238 48.5309 8.04417L49.5 9.01966L36.2988 22.4022L35.2945 21.4369ZM19.7282 19.4655C21.7364 17.4269 23.8751 15.5243 26.1305 13.7701C19.1407 9.1162 12.8037 7.55643 10.3834 10.0002C7.96312 12.444 9.50971 18.8609 14.1043 25.9383C15.8345 23.6565 17.7133 21.4941 19.7282 19.4655ZM19.7282 37.187C17.7152 35.1566 15.8365 32.9943 14.1043 30.7142C9.50971 37.7814 7.96814 44.1932 10.3834 46.6421C11.1517 47.4195 12.3116 47.7904 13.7578 47.7904C16.8861 47.7904 21.3552 46.0578 26.1305 42.8773C23.8763 41.1235 21.7377 39.2227 19.7282 37.187ZM36.2636 38.1574C34.5473 39.8311 32.7401 41.4069 30.8506 42.8773C36.9064 46.9063 42.4701 48.6185 45.4126 47.4144L36.2636 38.1574ZM41.7872 50.4831C38.0764 50.0665 33.4768 48.0698 28.5106 44.6149C23.5445 48.0698 18.97 50.0665 15.2341 50.4831C19.2382 52.9361 23.8298 54.2329 28.5106 54.2329C33.1915 54.2329 37.783 52.9361 41.7872 50.4831ZM6.58726 41.7596C6.99902 37.9999 8.97242 33.3511 12.392 28.3263C8.97242 23.2964 7.00404 18.673 6.58726 14.8879C4.16303 18.9402 2.88143 23.5868 2.88143 28.3237C2.88143 33.0606 4.16303 37.7072 6.58726 41.7596ZM15.209 6.16432C18.9248 6.58094 23.5244 8.57764 28.4905 12.0376C33.4567 8.57764 38.0312 6.58094 41.7671 6.15924C37.7614 3.70799 33.1693 2.41221 28.488 2.41221C23.8067 2.41221 19.2146 3.70799 15.209 6.15924V6.16432ZM30.8506 13.7853C32.7519 15.2514 34.5708 16.8238 36.2988 18.4951L45.4226 9.24321C42.4701 8.02893 36.9064 9.75129 30.8506 13.7701V13.7853Z" fill="#5B6AED"/>
</svg>
