<svg width="428" height="798" viewBox="0 0 428 798" fill="none" xmlns="http://www.w3.org/2000/svg">
<rect width="428" height="798" fill="#F5F5F5"/>
<g clip-path="url(#clip0_0_1)">
<path d="M229.498 412.925C225.206 417.306 220.598 421.358 215.712 425.05C210.815 421.357 206.193 417.305 201.886 412.925C197.561 408.584 193.558 403.927 189.911 398.992C197.237 389.11 205.925 380.338 215.712 372.943C220.592 376.631 225.2 380.673 229.498 385.037L231.533 387.01L258.28 359.965L256.317 357.982C245.548 347.109 230.945 341 215.718 341C200.49 341 185.887 347.109 175.118 357.982C164.659 368.921 158.872 383.572 159.002 398.778C159.133 413.985 165.171 428.531 175.816 439.286C186.462 450.04 200.863 456.142 215.92 456.278C230.976 456.414 245.483 450.572 256.317 440.011L258.28 438.038L231.533 410.973L229.498 412.925ZM197.959 416.912C202.028 421.035 206.361 424.883 210.931 428.431C196.769 437.843 183.929 440.998 179.025 436.055C174.121 431.113 177.255 418.135 186.564 403.821C190.07 408.436 193.876 412.809 197.959 416.912ZM197.959 381.071C193.88 385.178 190.074 389.551 186.564 394.162C177.255 379.869 174.131 366.901 179.025 361.948C180.582 360.376 182.932 359.626 185.862 359.626C192.2 359.626 201.255 363.13 210.931 369.563C206.363 373.11 202.03 376.954 197.959 381.071ZM231.462 379.108C227.984 375.723 224.323 372.536 220.494 369.563C232.764 361.414 244.037 357.951 249.999 360.387L231.462 379.108ZM242.653 354.18C235.135 355.023 225.815 359.061 215.753 366.048C205.691 359.061 196.423 355.023 188.853 354.18C196.966 349.219 206.269 346.596 215.753 346.596C225.237 346.596 234.54 349.219 242.653 354.18ZM171.334 371.823C172.168 379.427 176.166 388.829 183.095 398.992C176.166 409.164 172.178 418.515 171.334 426.17C166.422 417.974 163.825 408.577 163.825 398.997C163.825 389.416 166.422 380.019 171.334 371.823ZM188.802 443.813C196.331 442.971 205.65 438.932 215.712 431.935C225.775 438.932 235.043 442.971 242.612 443.824C234.496 448.781 225.192 451.402 215.707 451.402C206.222 451.402 196.918 448.781 188.802 443.824V443.813ZM220.494 428.4C224.347 425.435 228.032 422.255 231.533 418.875L250.019 437.586C244.037 440.042 232.764 436.559 220.494 428.431V428.4Z" fill="#4757E9"/>
<path d="M214 551.5C298.223 551.5 366.5 483.223 366.5 399C366.5 314.777 298.223 246.5 214 246.5C129.777 246.5 61.5 314.777 61.5 399C61.5 483.223 129.777 551.5 214 551.5Z" stroke="#4757E9"/>
<path opacity="0.8" d="M214 596.5C323.076 596.5 411.5 508.076 411.5 399C411.5 289.924 323.076 201.5 214 201.5C104.924 201.5 16.5 289.924 16.5 399C16.5 508.076 104.924 596.5 214 596.5Z" stroke="#4757E9"/>
<path opacity="0.4" d="M214 671.5C364.498 671.5 486.5 549.498 486.5 399C486.5 248.502 364.498 126.5 214 126.5C63.5024 126.5 -58.5 248.502 -58.5 399C-58.5 549.498 63.5024 671.5 214 671.5Z" stroke="#4757E9"/>
<path opacity="0.2" d="M214 797.5C434.085 797.5 612.5 619.085 612.5 399C612.5 178.915 434.085 0.5 214 0.5C-6.08548 0.5 -184.5 178.915 -184.5 399C-184.5 619.085 -6.08548 797.5 214 797.5Z" stroke="#4757E9"/>
</g>
<defs>
<clipPath id="clip0_0_1">
<rect width="428" height="798" fill="white"/>
</clipPath>
</defs>
</svg>
